<svg xmlns="http://www.w3.org/2000/svg" xmlns:xlink="http://www.w3.org/1999/xlink" viewBox="258 307 937 227" preserveAspectRatio="xMidYMid meet" version="1.0"><defs><g/><clipPath id="cp-wordmark"><rect x="0" width="929" y="0" height="186"/></clipPath><clipPath id="cp-sub1"><path d="M 130 13 L 142.878906 13 L 142.878906 26 L 130 26 Z M 130 13 " clip-rule="nonzero"/></clipPath><clipPath id="cp-sub2"><rect x="0" width="143" y="0" height="34"/></clipPath><clipPath id="cp-sub3"><rect x="0" width="500" y="0" height="35"/></clipPath></defs><g transform="matrix(1, 0, 0, 1, 262, 310)"><g clip-path="url(#cp-wordmark)"><g fill="#263b7e" fill-opacity="1"><g transform="translate(1.018811, 137.948927)"><g><path d="M 73.109375 -22.265625 C 75.492188 -24.003906 77.648438 -26.132812 79.578125 -28.65625 C 81.503906 -31.175781 83.128906 -32.4375 84.453125 -32.4375 C 85.785156 -32.4375 86.453125 -30.441406 86.453125 -26.453125 C 86.453125 -22.472656 85.328125 -18.71875 83.078125 -15.1875 C 80.835938 -11.65625 77.882812 -8.703125 74.21875 -6.328125 C 66.707031 -1.378906 57.816406 1.09375 47.546875 1.09375 C 35.085938 1.09375 25.421875 -2.019531 18.546875 -8.25 C 11.679688 -14.476562 8.25 -23.132812 8.25 -34.21875 C 8.25 -47.875 11.546875 -60.835938 18.140625 -73.109375 C 20.335938 -77.140625 22.8125 -80.851562 25.5625 -84.25 C 23.457031 -86.71875 21.785156 -89.300781 20.546875 -92 C 19.304688 -94.707031 18.6875 -96.75 18.6875 -98.125 C 18.6875 -100.601562 19.601562 -101.84375 21.4375 -101.84375 C 22.71875 -101.75 24.1875 -100.878906 25.84375 -99.234375 L 30.09375 -95.109375 C 31.195312 -94.003906 32.34375 -93.085938 33.53125 -92.359375 C 42.601562 -100.054688 52.382812 -103.90625 62.875 -103.90625 C 73.363281 -103.90625 80.164062 -100.972656 83.28125 -95.109375 C 84.382812 -92.910156 84.9375 -90.207031 84.9375 -87 C 84.9375 -82.144531 82.828125 -78.066406 78.609375 -74.765625 C 74.398438 -71.460938 68.742188 -69.8125 61.640625 -69.8125 C 54.535156 -69.8125 47.179688 -71.28125 39.578125 -74.21875 C 33.078125 -63.132812 29.828125 -51.539062 29.828125 -39.4375 C 29.828125 -22.675781 36.515625 -14.296875 49.890625 -14.296875 C 58.140625 -14.296875 65.878906 -16.953125 73.109375 -22.265625 Z M 46.171875 -82.734375 C 50.847656 -81.179688 55.9375 -80.40625 61.4375 -80.40625 C 66.9375 -80.40625 69.6875 -81.914062 69.6875 -84.9375 C 69.6875 -88.507812 67.441406 -90.296875 62.953125 -90.296875 C 56.804688 -90.296875 51.210938 -87.773438 46.171875 -82.734375 Z M 46.171875 -82.734375 "/></g></g></g><g fill="#263b7e" fill-opacity="1"><g transform="translate(87.46658, 137.948927)"><g><path d="M 98.125 -32.4375 C 99.6875 -32.4375 100.46875 -30.328125 100.46875 -26.109375 C 100.46875 -23.816406 99.503906 -21.046875 97.578125 -17.796875 C 95.648438 -14.546875 93.148438 -11.566406 90.078125 -8.859375 C 87.015625 -6.160156 83.601562 -3.941406 79.84375 -2.203125 C 76.09375 -0.460938 72.519531 0.40625 69.125 0.40625 C 65.738281 0.40625 63.082031 -0.234375 61.15625 -1.515625 C 59.238281 -2.796875 57.726562 -4.535156 56.625 -6.734375 C 55.0625 -9.847656 53.773438 -15.78125 52.765625 -24.53125 C 51.765625 -33.28125 50.757812 -39.394531 49.75 -42.875 C 47.363281 -43.332031 45.273438 -44.269531 43.484375 -45.6875 C 41.703125 -47.113281 40.8125 -48.859375 40.8125 -50.921875 C 40.8125 -52.984375 41.75 -54.472656 43.625 -55.390625 C 45.507812 -56.304688 47.664062 -56.765625 50.09375 -56.765625 C 52.519531 -56.765625 54.695312 -56.164062 56.625 -54.96875 C 59.1875 -57.082031 61.269531 -59.582031 62.875 -62.46875 C 64.476562 -65.351562 65.28125 -69.242188 65.28125 -74.140625 C 65.28125 -79.046875 63.628906 -82.960938 60.328125 -85.890625 C 57.035156 -88.828125 52.203125 -90.296875 45.828125 -90.296875 C 39.460938 -90.296875 34.582031 -89.789062 31.1875 -88.78125 C 27.800781 -87.769531 24.894531 -86.671875 22.46875 -85.484375 C 20.039062 -84.296875 17.882812 -83.195312 16 -82.1875 C 14.125 -81.175781 12.363281 -80.671875 10.71875 -80.671875 C 9.070312 -80.671875 8.25 -81.195312 8.25 -82.25 C 8.25 -83.3125 9.117188 -85.03125 10.859375 -87.40625 C 12.597656 -89.789062 15.160156 -92.175781 18.546875 -94.5625 C 27.066406 -100.507812 36.6875 -103.460938 47.40625 -103.421875 C 58.132812 -103.378906 66.976562 -101.34375 73.9375 -97.3125 C 82.09375 -92.539062 86.171875 -85.390625 86.171875 -75.859375 C 86.265625 -67.984375 84.203125 -61.429688 79.984375 -56.203125 C 75.773438 -50.984375 70.554688 -47.226562 64.328125 -44.9375 C 65.691406 -41.914062 66.8125 -38.664062 67.6875 -35.1875 C 68.5625 -31.707031 69.410156 -28.5 70.234375 -25.5625 C 71.054688 -22.632812 71.992188 -20.207031 73.046875 -18.28125 C 74.097656 -16.351562 75.378906 -15.390625 76.890625 -15.390625 C 78.398438 -15.390625 80.234375 -16.28125 82.390625 -18.0625 C 84.546875 -19.851562 86.675781 -21.800781 88.78125 -23.90625 C 90.894531 -26.019531 92.796875 -27.96875 94.484375 -29.75 C 96.179688 -31.539062 97.394531 -32.4375 98.125 -32.4375 Z M 38.34375 -81.90625 C 39.53125 -81.90625 40.125 -80.347656 40.125 -77.234375 C 40.125 -74.117188 39.941406 -71.1875 39.578125 -68.4375 C 38.753906 -63.125 37.703125 -58.175781 36.421875 -53.59375 C 33.117188 -41.132812 31.46875 -33.851562 31.46875 -31.75 L 31.46875 -11.546875 C 31.46875 -6.597656 29.59375 -3.207031 25.84375 -1.375 C 24.101562 -0.550781 22.429688 0.222656 20.828125 0.953125 C 19.222656 1.691406 17.410156 2.0625 15.390625 2.0625 C 11.546875 2.0625 9.625 -2.359375 9.625 -11.203125 C 9.625 -20.046875 11.679688 -31.203125 15.796875 -44.671875 C 19.921875 -58.140625 24.226562 -68.398438 28.71875 -75.453125 C 29.632812 -76.828125 30.960938 -78.242188 32.703125 -79.703125 C 34.453125 -81.171875 36.332031 -81.90625 38.34375 -81.90625 Z M 38.34375 -81.90625 "/></g></g></g></g></g></svg>
